<svg width="14" height="15" viewBox="0 0 14 15" fill="none" xmlns="http://www.w3.org/2000/svg">
<path d="M2.79819 7.86706H13.0507C13.235 7.86706 13.3894 7.79874 13.5137 7.6621C13.638 7.52564 13.7002 7.35618 13.7002 7.15371C13.7002 6.95125 13.638 6.77985 13.5137 6.63952C13.3894 6.49901 13.235 6.42876 13.0507 6.42876H2.79819L7.4727 1.25697C7.6012 1.1148 7.6687 0.947274 7.6752 0.754394C7.68153 0.561515 7.61553 0.384033 7.47719 0.221948C7.3387 0.0705574 7.18386 -0.00338467 7.0127 0.000118872C6.84153 0.00362242 6.68836 0.0803318 6.5532 0.230247L0.867947 6.52833C0.78428 6.62108 0.723279 6.71854 0.684946 6.82069C0.646446 6.92285 0.627195 7.0334 0.627195 7.15233C0.627195 7.27108 0.646446 7.38163 0.684946 7.48397C0.723279 7.58613 0.780945 7.6798 0.857945 7.76499L6.5482 14.0606C6.6867 14.2138 6.83736 14.2876 7.0002 14.2819C7.16303 14.2761 7.3137 14.1976 7.4522 14.0462C7.59053 13.8841 7.6597 13.7087 7.6597 13.5198C7.6597 13.331 7.59053 13.163 7.4522 13.0159L2.79819 7.86706Z" fill="#222125"/>
</svg>
