<svg width="18" height="20" viewBox="0 0 18 20" fill="none" xmlns="http://www.w3.org/2000/svg">
<path d="M7.95 13.8155L11.627 10.1385C11.7757 9.98985 11.9548 9.91385 12.1645 9.91052C12.374 9.90735 12.5563 9.98335 12.7115 10.1385C12.8667 10.2937 12.9443 10.4744 12.9443 10.6808C12.9443 10.8871 12.8667 11.0678 12.7115 11.223L8.58275 15.352C8.40192 15.5327 8.191 15.623 7.95 15.623C7.709 15.623 7.49808 15.5327 7.31725 15.352L5.2885 13.323C5.13983 13.1743 5.06383 12.9952 5.0605 12.7855C5.05733 12.576 5.13333 12.3937 5.2885 12.2385C5.44367 12.0833 5.62442 12.0058 5.83075 12.0058C6.03708 12.0058 6.21783 12.0833 6.373 12.2385L7.95 13.8155ZM2.30775 19.5C1.80258 19.5 1.375 19.325 1.025 18.975C0.675 18.625 0.5 18.1974 0.5 17.6923V4.30777C0.5 3.8026 0.675 3.37502 1.025 3.02502C1.375 2.67502 1.80258 2.50002 2.30775 2.50002H3.69225V1.15377C3.69225 0.934599 3.76567 0.751599 3.9125 0.604765C4.05933 0.458099 4.24233 0.384766 4.4615 0.384766C4.68083 0.384766 4.86383 0.458099 5.0105 0.604765C5.15733 0.751599 5.23075 0.934599 5.23075 1.15377V2.50002H12.8077V1.13477C12.8077 0.921932 12.8795 0.743682 13.023 0.600015C13.1667 0.456515 13.3449 0.384766 13.5577 0.384766C13.7706 0.384766 13.9487 0.456515 14.0922 0.600015C14.2359 0.743682 14.3077 0.921932 14.3077 1.13477V2.50002H15.6923C16.1974 2.50002 16.625 2.67502 16.975 3.02502C17.325 3.37502 17.5 3.8026 17.5 4.30777V17.6923C17.5 18.1974 17.325 18.625 16.975 18.975C16.625 19.325 16.1974 19.5 15.6923 19.5H2.30775ZM2.30775 18H15.6923C15.7692 18 15.8398 17.9679 15.9038 17.9038C15.9679 17.8398 16 17.7693 16 17.6923V8.30777H2V17.6923C2 17.7693 2.03208 17.8398 2.09625 17.9038C2.16025 17.9679 2.23075 18 2.30775 18ZM2 6.80777H16V4.30777C16 4.23077 15.9679 4.16026 15.9038 4.09626C15.8398 4.0321 15.7692 4.00002 15.6923 4.00002H2.30775C2.23075 4.00002 2.16025 4.0321 2.09625 4.09626C2.03208 4.16026 2 4.23077 2 4.30777V6.80777Z" fill="#757575"/>
</svg>
