<svg width="20" height="17" viewBox="0 0 20 17" fill="none" xmlns="http://www.w3.org/2000/svg">
<path d="M9.9905 16.7099C9.77633 16.7099 9.56125 16.6715 9.34525 16.5946C9.12925 16.5176 8.93917 16.3971 8.775 16.2331L7.3385 14.9274C5.5655 13.3107 3.9825 11.7226 2.5895 10.1629C1.1965 8.60322 0.5 6.93239 0.5 5.15039C0.5 3.73122 0.9785 2.54306 1.9355 1.58589C2.89267 0.62889 4.08083 0.150391 5.5 0.150391C6.30633 0.150391 7.10283 0.336307 7.8895 0.708141C8.676 1.07997 9.3795 1.68381 10 2.51964C10.6205 1.68381 11.324 1.07997 12.1105 0.708141C12.8972 0.336307 13.6937 0.150391 14.5 0.150391C15.9192 0.150391 17.1073 0.62889 18.0645 1.58589C19.0215 2.54306 19.5 3.73122 19.5 5.15039C19.5 6.95172 18.7917 8.64114 17.375 10.2186C15.9583 11.7961 14.3788 13.3708 12.6365 14.9426L11.2153 16.2331C11.0513 16.3971 10.8597 16.5176 10.6405 16.5946C10.4212 16.6715 10.2045 16.7099 9.9905 16.7099ZM9.28075 4.03889C8.73975 3.21456 8.17017 2.61039 7.572 2.22639C6.974 1.84239 6.28333 1.65039 5.5 1.65039C4.5 1.65039 3.66667 1.98372 3 2.65039C2.33333 3.31706 2 4.15039 2 5.15039C2 5.95289 2.25867 6.79197 2.776 7.66764C3.29333 8.54331 3.94267 9.41381 4.724 10.2791C5.50533 11.1446 6.35183 11.9901 7.2635 12.8156C8.175 13.6413 9.01983 14.4086 9.798 15.1176C9.85567 15.169 9.923 15.1946 10 15.1946C10.077 15.1946 10.1443 15.169 10.202 15.1176C10.9802 14.4086 11.825 13.6413 12.7365 12.8156C13.6482 11.9901 14.4947 11.1446 15.276 10.2791C16.0573 9.41381 16.7067 8.54331 17.224 7.66764C17.7413 6.79197 18 5.95289 18 5.15039C18 4.15039 17.6667 3.31706 17 2.65039C16.3333 1.98372 15.5 1.65039 14.5 1.65039C13.7167 1.65039 13.026 1.84239 12.428 2.22639C11.8298 2.61039 11.2603 3.21456 10.7192 4.03889C10.6346 4.16706 10.5282 4.26322 10.4 4.32739C10.2718 4.39139 10.1385 4.42339 10 4.42339C9.8615 4.42339 9.72817 4.39139 9.6 4.32739C9.47183 4.26322 9.36542 4.16706 9.28075 4.03889Z" fill="#4B4B4B"/>
</svg>
