<svg width="19" height="16" viewBox="0 0 19 16" fill="none" xmlns="http://www.w3.org/2000/svg">
<path d="M9.16984 16C8.96291 16 8.7551 15.9629 8.54639 15.8886C8.33769 15.8142 8.15403 15.6978 7.99541 15.5394L6.60745 14.2777C4.89435 12.7157 3.36484 11.1812 2.0189 9.6742C0.672967 8.16724 0 6.55285 0 4.83106C0 3.45985 0.462333 2.31182 1.387 1.387C2.31183 0.462332 3.45985 0 4.83106 0C5.61015 0 6.37974 0.179635 7.13983 0.538905C7.89976 0.898175 8.57949 1.48161 9.17902 2.2892C9.77856 1.48161 10.4583 0.898175 11.2182 0.538905C11.9783 0.179635 12.7479 0 13.527 0C14.8982 0 16.0462 0.462332 16.971 1.387C17.8957 2.31182 18.358 3.45985 18.358 4.83106C18.358 6.57153 17.6736 8.20387 16.3048 9.72807C14.936 11.2523 13.4099 12.7737 11.7264 14.2925L10.3532 15.5394C10.1948 15.6978 10.0096 15.8142 9.79788 15.8886C9.58596 15.9629 9.37661 16 9.16984 16Z" fill="#F04438"/>
</svg>
