<svg width="23" height="11" viewBox="0 0 23 11" fill="none" xmlns="http://www.w3.org/2000/svg">
<path d="M0.8655 10.7884C0.620333 10.7884 0.41475 10.7055 0.24875 10.5396C0.0829167 10.3736 0 10.168 0 9.92287V9.56912C0 8.90378 0.347417 8.35728 1.04225 7.92962C1.73725 7.50212 2.64308 7.28837 3.75975 7.28837C3.94425 7.28837 4.13008 7.29412 4.31725 7.30562C4.50442 7.31712 4.69292 7.33953 4.88275 7.37287C4.68792 7.68453 4.54333 8.00795 4.449 8.34312C4.35483 8.67845 4.30775 9.02237 4.30775 9.37487V10.7884H0.8655ZM6.90775 10.7884C6.64742 10.7884 6.43108 10.7017 6.25875 10.5284C6.08625 10.3552 6 10.1405 6 9.88437V9.41337C6 8.9452 6.13142 8.51728 6.39425 8.12962C6.65708 7.74179 7.03592 7.4037 7.53075 7.11537C8.02558 6.82687 8.61025 6.61053 9.28475 6.46637C9.95908 6.32203 10.6962 6.24987 11.4963 6.24987C12.3116 6.24987 13.0564 6.32203 13.7308 6.46637C14.4051 6.61053 14.9897 6.82687 15.4845 7.11537C15.9795 7.4037 16.3558 7.74179 16.6135 8.12962C16.8712 8.51728 17 8.9452 17 9.41337V9.88437C17 10.1405 16.9133 10.3552 16.74 10.5284C16.5668 10.7017 16.3522 10.7884 16.096 10.7884H6.90775ZM18.6923 10.7884V9.37612C18.6923 8.99962 18.6478 8.64537 18.5588 8.31337C18.4696 7.98137 18.3359 7.66787 18.1578 7.37287C18.3539 7.33953 18.5414 7.31712 18.7203 7.30562C18.8991 7.29412 19.0757 7.28837 19.25 7.28837C20.3667 7.28837 21.2708 7.49962 21.9625 7.92212C22.6542 8.34445 23 8.89345 23 9.56912V9.92287C23 10.168 22.9171 10.3736 22.7512 10.5396C22.5852 10.7055 22.3797 10.7884 22.1345 10.7884H18.6923ZM3.757 6.31712C3.28567 6.31712 2.883 6.14953 2.549 5.81437C2.215 5.4792 2.048 5.07628 2.048 4.60562C2.048 4.12878 2.21567 3.72595 2.551 3.39712C2.88617 3.06828 3.28908 2.90387 3.75975 2.90387C4.23658 2.90387 4.641 3.06828 4.973 3.39712C5.30517 3.72595 5.47125 4.12978 5.47125 4.60862C5.47125 5.07328 5.30692 5.4742 4.97825 5.81137C4.64975 6.14853 4.24267 6.31712 3.757 6.31712ZM19.25 6.31712C18.7833 6.31712 18.3814 6.14853 18.0443 5.81137C17.7071 5.4742 17.5385 5.07328 17.5385 4.60862C17.5385 4.12978 17.7071 3.72595 18.0443 3.39712C18.3814 3.06828 18.7839 2.90387 19.2518 2.90387C19.7339 2.90387 20.1394 3.06828 20.4683 3.39712C20.7971 3.72595 20.9615 4.12878 20.9615 4.60562C20.9615 5.07628 20.7975 5.4792 20.4695 5.81437C20.1415 6.14953 19.735 6.31712 19.25 6.31712ZM11.5035 5.49987C10.7832 5.49987 10.1698 5.24745 9.6635 4.74262C9.15717 4.23795 8.904 3.62503 8.904 2.90387C8.904 2.1682 9.15633 1.55162 9.661 1.05412C10.1658 0.55645 10.7788 0.307617 11.5 0.307617C12.2355 0.307617 12.8521 0.556117 13.3497 1.05312C13.8472 1.54995 14.096 2.1657 14.096 2.90037C14.096 3.62053 13.8476 4.23387 13.3508 4.74037C12.8538 5.2467 12.238 5.49987 11.5035 5.49987Z" fill="#7948BB"/>
</svg>
