<svg width="16" height="17" viewBox="0 0 16 17" fill="none" xmlns="http://www.w3.org/2000/svg">
<path d="M2 14.9999H5.34625V9.96137C5.34625 9.70537 5.43283 9.4907 5.606 9.31737C5.77933 9.1442 5.994 9.05762 6.25 9.05762H9.75C10.006 9.05762 10.2207 9.1442 10.394 9.31737C10.5672 9.4907 10.6538 9.70537 10.6538 9.96137V14.9999H14V6.15362C14 6.10245 13.9888 6.05603 13.9663 6.01437C13.9439 5.9727 13.9135 5.93578 13.875 5.90362L8.18275 1.62487C8.13142 1.58003 8.0705 1.55762 8 1.55762C7.9295 1.55762 7.86858 1.58003 7.81725 1.62487L2.125 5.90362C2.0865 5.93578 2.05608 5.9727 2.03375 6.01437C2.01125 6.05603 2 6.10245 2 6.15362V14.9999ZM0.5 14.9999V6.15362C0.5 5.86745 0.564 5.59637 0.692 5.34037C0.820166 5.0842 0.997167 4.87328 1.223 4.70762L6.9155 0.419118C7.23133 0.178118 7.59233 0.0576172 7.9985 0.0576172C8.40467 0.0576172 8.76667 0.178118 9.0845 0.419118L14.777 4.70762C15.0028 4.87328 15.1798 5.0842 15.308 5.34037C15.436 5.59637 15.5 5.86745 15.5 6.15362V14.9999C15.5 15.4089 15.3523 15.7611 15.0568 16.0566C14.7613 16.3521 14.409 16.4999 14 16.4999H10.0577C9.80158 16.4999 9.58692 16.4132 9.41375 16.2399C9.24042 16.0667 9.15375 15.852 9.15375 15.5959V10.5576H6.84625V15.5959C6.84625 15.852 6.75958 16.0667 6.58625 16.2399C6.41308 16.4132 6.19842 16.4999 5.94225 16.4999H2C1.591 16.4999 1.23875 16.3521 0.94325 16.0566C0.64775 15.7611 0.5 15.4089 0.5 14.9999Z" fill="#757575"/>
</svg>
