<svg width="10" height="6" viewBox="0 0 10 6" fill="none" xmlns="http://www.w3.org/2000/svg">
<path d="M4.9985 5.50794C4.89808 5.50794 4.80461 5.4919 4.71808 5.45982C4.63155 5.42773 4.54926 5.37273 4.4712 5.29482L0.725996 1.54961C0.610718 1.43419 0.551691 1.28912 0.548913 1.1144C0.546274 0.939818 0.605302 0.792109 0.725996 0.671276C0.846829 0.550582 0.993218 0.490234 1.16516 0.490234C1.33711 0.490234 1.4835 0.550582 1.60433 0.671276L4.9985 4.06565L8.39266 0.671276C8.50808 0.555998 8.65315 0.496971 8.82787 0.494193C9.00245 0.491554 9.15016 0.550582 9.271 0.671276C9.39169 0.792109 9.45204 0.938499 9.45204 1.11044C9.45204 1.28239 9.39169 1.42878 9.271 1.54961L5.52579 5.29482C5.44773 5.37273 5.36544 5.42773 5.27891 5.45982C5.19238 5.4919 5.09891 5.50794 4.9985 5.50794Z" fill="#121212"/>
</svg>
