<svg width="10" height="6" viewBox="0 0 10 6" fill="none" xmlns="http://www.w3.org/2000/svg">
<path d="M5.00237 1.77466L1.44154 5.3357C1.32612 5.45098 1.19841 5.51001 1.05841 5.51279C0.91855 5.51543 0.788203 5.4564 0.66737 5.3357C0.546675 5.21487 0.486328 5.08584 0.486328 4.94862C0.486328 4.8114 0.546675 4.68237 0.66737 4.56154L4.53758 0.691329C4.67438 0.554662 4.82931 0.486328 5.00237 0.486328C5.17543 0.486328 5.33036 0.554662 5.46716 0.691329L9.33737 4.56154C9.45265 4.67695 9.51168 4.80119 9.51445 4.93425C9.51709 5.06716 9.45806 5.19404 9.33737 5.31487C9.21654 5.43556 9.08751 5.49591 8.95029 5.49591C8.81306 5.49591 8.68404 5.43556 8.5632 5.31487L5.00237 1.77466Z" fill="#121212"/>
</svg>
