<svg width="6" height="10" viewBox="0 0 6 10" fill="none" xmlns="http://www.w3.org/2000/svg">
<path d="M4.1635 5.00042L0.602461 1.43958C0.487183 1.32417 0.428155 1.19646 0.425378 1.05646C0.422739 0.916598 0.481767 0.78625 0.602461 0.665417C0.723294 0.544722 0.852322 0.484375 0.989544 0.484375C1.12677 0.484375 1.25809 0.547084 1.3835 0.672501L5.24684 4.53563C5.31086 4.60535 5.35892 4.67861 5.391 4.75542C5.42309 4.83222 5.43913 4.91528 5.43913 5.00458C5.43913 5.09389 5.42309 5.17695 5.391 5.25375C5.35892 5.33056 5.31086 5.40104 5.24684 5.46521L1.3835 9.32833C1.2635 9.44833 1.13697 9.50625 1.00392 9.50208C0.871002 9.49778 0.744128 9.43528 0.623294 9.31458C0.5026 9.19375 0.442253 9.06472 0.442253 8.9275C0.442253 8.79028 0.5026 8.66125 0.623294 8.54042L4.1635 5.00042Z" fill="#757575"/>
</svg>
