<svg width="14" height="16" viewBox="0 0 14 16" fill="none" xmlns="http://www.w3.org/2000/svg">
<path d="M7.10964 7.49448C7.47964 7.49448 7.79443 7.36274 8.05401 7.09927C8.31373 6.8358 8.44359 6.51906 8.44359 6.14906C8.44359 5.77906 8.31179 5.4642 8.04818 5.20448C7.78471 4.9449 7.46797 4.8151 7.09797 4.8151C6.72797 4.8151 6.41318 4.94684 6.15359 5.21031C5.89387 5.47392 5.76401 5.79073 5.76401 6.16073C5.76401 6.53073 5.89582 6.84552 6.15943 7.1051C6.4229 7.36469 6.73964 7.49448 7.10964 7.49448ZM7.1038 13.7639C8.69241 12.3739 9.92957 11.0191 10.8153 9.69969C11.701 8.38024 12.1438 7.21677 12.1438 6.20927C12.1438 4.74566 11.6681 3.52802 10.7167 2.55635C9.76533 1.58469 8.56102 1.09885 7.1038 1.09885C5.64658 1.09885 4.44227 1.58469 3.49089 2.55635C2.5395 3.52802 2.0638 4.74566 2.0638 6.20927C2.0638 7.21677 2.50665 8.38024 3.39234 9.69969C4.27804 11.0191 5.51519 12.3739 7.1038 13.7639ZM7.1038 15.198C5.06255 13.4626 3.53165 11.8474 2.51109 10.3524C1.49068 8.8574 0.980469 7.47635 0.980469 6.20927C0.980469 4.50844 1.5504 3.05226 2.69026 1.84073C3.83026 0.629201 5.29797 0.0234375 7.09339 0.0234375C8.8888 0.0234375 10.36 0.629201 11.5069 1.84073C12.6537 3.05226 13.2271 4.50844 13.2271 6.20927C13.2271 7.47635 12.7205 8.85434 11.7071 10.3432C10.6938 11.832 9.15936 13.4502 7.1038 15.198Z" fill="#7948BB"/>
</svg>
