<svg width="15" height="20" viewBox="0 0 15 20" fill="none" xmlns="http://www.w3.org/2000/svg">
<path d="M0.75 16.8845C0.5375 16.8845 0.359417 16.8127 0.21575 16.669C0.0719168 16.5252 0 16.3469 0 16.1343C0 15.9218 0.0719168 15.7437 0.21575 15.6C0.359417 15.4565 0.5375 15.3848 0.75 15.3848H1.80775V7.923C1.80775 6.57817 2.22283 5.38908 3.053 4.35575C3.883 3.32242 4.94867 2.6615 6.25 2.373V1.75C6.25 1.40283 6.37142 1.10767 6.61425 0.8645C6.85708 0.6215 7.15192 0.5 7.49875 0.5C7.84575 0.5 8.141 0.6215 8.3845 0.8645C8.62817 1.10767 8.75 1.40283 8.75 1.75V2.373C10.0513 2.6615 11.117 3.32242 11.947 4.35575C12.7772 5.38908 13.1923 6.57817 13.1923 7.923V15.3848H14.25C14.4625 15.3848 14.6406 15.4566 14.7843 15.6003C14.9281 15.7441 15 15.9223 15 16.135C15 16.3475 14.9281 16.5256 14.7843 16.6693C14.6406 16.8128 14.4625 16.8845 14.25 16.8845H0.75ZM7.49825 19.6923C7.00075 19.6923 6.57542 19.5153 6.22225 19.1613C5.86892 18.8073 5.69225 18.3817 5.69225 17.8845H9.30775C9.30775 18.3833 9.13058 18.8093 8.77625 19.1625C8.42192 19.5157 7.99592 19.6923 7.49825 19.6923ZM3.30775 15.3848H11.6923V7.923C11.6923 6.76533 11.283 5.77725 10.4645 4.95875C9.64583 4.14008 8.65767 3.73075 7.5 3.73075C6.34233 3.73075 5.35417 4.14008 4.5355 4.95875C3.717 5.77725 3.30775 6.76533 3.30775 7.923V15.3848Z" fill="#757575"/>
</svg>
