<svg width="16" height="20" viewBox="0 0 16 20" fill="none" xmlns="http://www.w3.org/2000/svg">
<path d="M1.34961 16.6853C1.13711 16.6853 0.959026 16.6135 0.815359 16.4698C0.671526 16.326 0.599609 16.1477 0.599609 15.935C0.599609 15.7225 0.671526 15.5445 0.815359 15.4008C0.959026 15.2573 1.13711 15.1855 1.34961 15.1855H2.40736V7.72378C2.40736 6.37895 2.82244 5.18987 3.6526 4.15653C4.4826 3.1232 5.54827 2.46228 6.8496 2.17378V1.55078C6.8496 1.20361 6.97101 0.908448 7.21385 0.665282C7.45668 0.422282 7.75151 0.300781 8.09835 0.300781C8.44535 0.300781 8.7406 0.422282 8.98409 0.665282C9.22776 0.908448 9.34959 1.20361 9.34959 1.55078V2.17378C10.6509 2.46228 11.7166 3.1232 12.5466 4.15653C13.3768 5.18987 13.7918 6.37895 13.7918 7.72378V15.1855H14.8496C15.0621 15.1855 15.2402 15.2574 15.3838 15.401C15.5277 15.5449 15.5996 15.7231 15.5996 15.9358C15.5996 16.1483 15.5277 16.3264 15.3838 16.47C15.2402 16.6135 15.0621 16.6853 14.8496 16.6853H1.34961ZM8.09785 19.493C7.60035 19.493 7.17501 19.316 6.82185 18.962C6.46852 18.608 6.29185 18.1825 6.29185 17.6853H9.90734C9.90734 18.1841 9.73018 18.6101 9.37584 18.9633C9.02151 19.3165 8.59551 19.493 8.09785 19.493ZM3.90735 15.1855H12.2918V7.72378C12.2918 6.56612 11.8826 5.57803 11.0641 4.75953C10.2454 3.94086 9.25726 3.53153 8.0996 3.53153C6.94193 3.53153 5.95377 3.94086 5.1351 4.75953C4.3166 5.57803 3.90735 6.56612 3.90735 7.72378V15.1855Z" fill="#121212"/>
</svg>
