<svg width="16" height="16" viewBox="0 0 16 16" fill="none" xmlns="http://www.w3.org/2000/svg">
<path d="M7.61685 15.7956C6.05204 15.7956 4.70598 15.5545 3.57865 15.0724C2.45132 14.5904 1.58479 13.9027 0.979059 13.0094C0.390155 12.1019 0.0957031 11.0243 0.0957031 9.77657V0.652344H4.76487V9.77657C4.76487 10.2728 4.88265 10.6982 5.11821 11.0527C5.35377 11.4072 5.68188 11.6766 6.10252 11.8609C6.53999 12.0452 7.06159 12.1374 7.66732 12.1374C8.27305 12.1374 8.79465 12.0452 9.23212 11.8609C9.66959 11.6766 9.9977 11.4072 10.2164 11.0527C10.452 10.6982 10.5698 10.2728 10.5698 9.77657V0.652344H15.2389V9.77657C15.2389 11.0243 14.9361 12.1019 14.3303 13.0094C13.7246 13.9027 12.8497 14.5904 11.7055 15.0724C10.5782 15.5545 9.2153 15.7956 7.61685 15.7956Z" fill="white"/>
</svg>
